<?xml version="1.0" encoding="UTF-8" standalone="no"?>
<svg
   width="485"
   height="112"
   viewBox="0 0 485 112"
   fill="none"
   version="1.1"
   id="svg54"
   sodipodi:docname="total-raised-wrapper.svg"
   inkscape:version="1.1.2 (0a00cf5339, 2022-02-04, custom)"
   xmlns:inkscape="http://www.inkscape.org/namespaces/inkscape"
   xmlns:sodipodi="http://sodipodi.sourceforge.net/DTD/sodipodi-0.dtd"
   xmlns="http://www.w3.org/2000/svg"
   xmlns:svg="http://www.w3.org/2000/svg">
  <sodipodi:namedview
     id="namedview56"
     pagecolor="#ffffff"
     bordercolor="#666666"
     borderopacity="1.0"
     inkscape:pageshadow="2"
     inkscape:pageopacity="0.0"
     inkscape:pagecheckerboard="0"
     showgrid="false"
     inkscape:zoom="1.7933227"
     inkscape:cx="299.44415"
     inkscape:cy="109.85195"
     inkscape:window-width="2560"
     inkscape:window-height="1369"
     inkscape:window-x="-8"
     inkscape:window-y="-8"
     inkscape:window-maximized="1"
     inkscape:current-layer="svg54" />
  <g
     filter="url(#filter0_d_132_238)"
     id="g7"
     transform="translate(-72.073799,-53.918785)">
    <mask
       id="path-1-inside-1_132_238"
       fill="#ffffff">
      <path
         d="m 72,72.1282 h 477.745 c 4.088,0 7.402,3.3139 7.402,7.4018 v 60.777 c 0,4.088 -3.314,7.402 -7.402,7.402 H 72 Z"
         id="path2" />
    </mask>
    <path
       d="m 72,72.1282 h 485.147 z m 487.19,68.1788 c 0,5.216 -4.228,9.445 -9.445,9.445 H 72 v -4.086 h 477.745 c 2.96,0 5.36,-2.399 5.36,-5.359 z M 72,147.709 V 72.1282 Z M 549.745,72.1282 c 5.217,0 9.445,4.2285 9.445,9.4446 v 58.7342 c 0,5.216 -4.228,9.445 -9.445,9.445 v -4.086 c 2.96,0 5.36,-2.399 5.36,-5.359 V 79.53 c 0,-4.0879 -2.4,-7.4018 -5.36,-7.4018 z"
       fill="#c30f31"
       mask="url(#path-1-inside-1_132_238)"
       id="path5" />
  </g>
  <g
     filter="url(#filter1_d_132_238)"
     id="g14"
     transform="translate(-72.073799,-53.918785)">
    <mask
       id="path-3-inside-2_132_238"
       fill="#ffffff">
      <path
         d="m 227.247,72.1282 h 322.498 c 4.088,0 7.402,3.3139 7.402,7.4018 v 60.777 c 0,4.088 -3.314,7.402 -7.402,7.402 H 227.247 Z"
         id="path9" />
    </mask>
    <path
       d="m 227.247,70.0854 h 322.498 c 5.217,0 9.445,4.2285 9.445,9.4446 h -4.085 c 0,-2.9597 -2.4,-5.3591 -5.36,-5.3591 H 227.247 Z m 329.9,77.6236 h -329.9 z m -329.9,0 V 72.1282 Z M 549.745,70.0854 c 5.217,0 9.445,4.2285 9.445,9.4446 v 58.734 c 0,5.217 -4.228,9.445 -9.445,9.445 v 0 c 2.96,0 5.36,-3.314 5.36,-7.402 V 79.53 c 0,-2.9597 -2.4,-5.3591 -5.36,-5.3591 z"
       fill="#c30f31"
       mask="url(#path-3-inside-2_132_238)"
       id="path12" />
  </g>
  <path
     d="m 7.100401,13.444415 v 12.6368 h -1.6983 v -12.6368 H 0.69100096 v -1.476 H 11.811401 v 1.476 z m 11.2743,12.8794 c -0.8627,0 -1.6041,-0.1617 -2.2241,-0.4852 -0.62,-0.337 -1.1323,-0.8155 -1.5366,-1.4356 -0.4044,-0.62 -0.701,-1.3816 -0.8897,-2.2847 -0.1887,-0.9031 -0.283,-1.9343 -0.283,-3.0935 0,-1.1457 0.0943,-2.1702 0.283,-3.0733 0.1887,-0.9166 0.4853,-1.6849 0.8897,-2.3049 0.4043,-0.6201 0.9166,-1.0918 1.5366,-1.4153 0.62,-0.337 1.3614,-0.5055 2.2241,-0.5055 0.8627,0 1.604,0.1685 2.2241,0.5055 0.62,0.3235 1.1322,0.7952 1.5366,1.4153 0.4044,0.62 0.7009,1.3883 0.8896,2.3049 0.1887,0.9031 0.2831,1.9276 0.2831,3.0733 0,1.1592 -0.0944,2.1904 -0.2831,3.0935 -0.1887,0.9031 -0.4852,1.6647 -0.8896,2.2847 -0.4044,0.6201 -0.9166,1.0986 -1.5366,1.4356 -0.6201,0.3235 -1.3614,0.4852 -2.2241,0.4852 z m 0,-1.476 c 0.5661,0 1.0446,-0.1078 1.4355,-0.3235 0.3909,-0.2291 0.7144,-0.5459 0.9705,-0.9502 0.2561,-0.4044 0.4381,-0.8897 0.5459,-1.4558 0.1214,-0.5796 0.182,-1.2266 0.182,-1.941 v -2.305 c 0,-0.7009 -0.0606,-1.3412 -0.182,-1.9208 -0.1078,-0.5796 -0.2898,-1.0716 -0.5459,-1.4759 -0.2561,-0.4044 -0.5796,-0.7144 -0.9705,-0.9301 -0.3909,-0.2292 -0.8694,-0.3437 -1.4355,-0.3437 -0.5661,0 -1.0447,0.1145 -1.4356,0.3437 -0.3909,0.2157 -0.7144,0.5257 -0.9705,0.9301 -0.2561,0.4043 -0.4448,0.8963 -0.5661,1.4759 -0.1078,0.5796 -0.1617,1.2199 -0.1617,1.9208 v 2.305 c 0,0.7144 0.0539,1.3614 0.1617,1.941 0.1213,0.5661 0.31,1.0514 0.5661,1.4558 0.2561,0.4043 0.5796,0.7211 0.9705,0.9502 0.3909,0.2157 0.8695,0.3235 1.4356,0.3235 z m 12.9725,-11.4034 v 12.6368 h -1.698 v -12.6368 h -4.7113 v -1.476 h 11.1203 v 1.476 z m 14.934,12.6368 -1.193,-4.0236 h -4.954 l -1.192,4.0236 h -1.76 l 4.327,-14.1128 h 2.245 l 4.326,14.1128 z m -3.579,-12.3133 h -0.182 l -1.981,6.8138 h 4.145 z m 8.403,12.3133 v -14.1128 h 1.699 v 12.6368 h 6.692 v 1.476 z m 25.339,0 h -1.698 v -14.1128 h 5.135 c 1.308,0 2.305,0.3572 2.993,1.0716 0.687,0.7144 1.031,1.7119 1.031,2.9924 0,1.1457 -0.297,2.0623 -0.89,2.7498 -0.593,0.6874 -1.456,1.0851 -2.588,1.1929 l 3.599,6.1061 h -1.9 l -3.438,-6.0252 h -2.244 z m 3.397,-7.4608 c 0.714,0 1.267,-0.1752 1.658,-0.5257 0.404,-0.3639 0.606,-0.8761 0.606,-1.5366 v -1.0514 c 0,-0.6605 -0.202,-1.1659 -0.606,-1.5164 -0.391,-0.3639 -0.944,-0.5459 -1.658,-0.5459 h -3.397 v 5.176 z m 14.934,7.4608 -1.193,-4.0236 h -4.954 l -1.193,4.0236 h -1.759 l 4.327,-14.1128 h 2.244 l 4.327,14.1128 z m -3.579,-12.3133 h -0.182 l -1.981,6.8138 h 4.144 z m 7.675,12.3133 v -1.3547 h 3.517999 v -11.4034 h -3.517999 v -1.3547 h 8.734999 v 1.3547 h -3.518 v 11.4034 h 3.518 v 1.3547 z m 16.450999,0.2426 c -1.268,0 -2.305,-0.2291 -3.114,-0.6874 -0.809,-0.4718 -1.476,-1.0716 -2.002,-1.7995 l 1.234,-1.0109 c 0.552,0.6874 1.132,1.1996 1.738,1.5366 0.62,0.337 1.355,0.5055 2.204,0.5055 1.025,0 1.806,-0.2359 2.346,-0.7077 0.539,-0.4718 0.808,-1.1323 0.808,-1.9814 0,-0.6875 -0.195,-1.2199 -0.586,-1.5973 -0.391,-0.3909 -1.072,-0.6673 -2.042,-0.829 l -1.577,-0.2629 c -0.688,-0.1213 -1.267,-0.3032 -1.739,-0.5459 -0.458,-0.2426 -0.829,-0.5324 -1.112,-0.8694 -0.283,-0.3504 -0.485,-0.7279 -0.607,-1.1322 -0.121,-0.4179 -0.182,-0.8492 -0.182,-1.294 0,-1.2941 0.425,-2.2713 1.274,-2.9318 0.849,-0.6605 1.995,-0.9907 3.437,-0.9907 1.133,0 2.083,0.1887 2.851,0.5661 0.782,0.3774 1.409,0.9099 1.881,1.5973 l -1.193,1.0312 c -0.391,-0.5122 -0.863,-0.9301 -1.416,-1.2536 -0.552,-0.3235 -1.267,-0.4853 -2.143,-0.4853 -0.957,0 -1.691,0.2022 -2.204,0.6066 -0.512,0.4044 -0.768,1.011 -0.768,1.8197 0,0.6335 0.189,1.1525 0.566,1.5569 0.391,0.3909 1.085,0.6739 2.083,0.8492 l 1.516,0.2628 c 0.688,0.1213 1.267,0.3033 1.739,0.5459 0.472,0.2426 0.849,0.5324 1.132,0.8694 0.297,0.337 0.506,0.7144 0.627,1.1323 0.121,0.4178 0.182,0.8559 0.182,1.3142 0,1.3075 -0.431,2.3319 -1.294,3.0733 -0.849,0.7413 -2.062,1.112 -3.639,1.112 z m 7.917,-0.2426 v -14.1128 h 8.695 v 1.476 h -6.996 v 4.7514 h 6.753 v 1.476 h -6.753 v 4.9334 h 6.996 v 1.476 z m 12.225,-14.1128 h 3.943 c 1.725,0 3.012,0.5931 3.861,1.7793 0.85,1.1862 1.274,2.9452 1.274,5.2771 0,2.3319 -0.424,4.091 -1.274,5.2771 -0.849,1.1862 -2.136,1.7793 -3.861,1.7793 h -3.943 z m 3.862,12.6368 c 1.132,0 1.981,-0.3909 2.547,-1.1727 0.58,-0.7818 0.87,-1.8871 0.87,-3.3159 v -2.1836 c 0,-1.4288 -0.29,-2.5341 -0.87,-3.3159 -0.566,-0.7818 -1.415,-1.1727 -2.547,-1.1727 h -2.164 v 11.1608 z"
     fill="#e7ae47"
     id="path16" />
  <defs
     id="defs52">
    <filter
       id="filter0_d_132_238"
       x="0.50460798"
       y="0.63278198"
       width="628.138"
       height="218.57201"
       filterUnits="userSpaceOnUse"
       color-interpolation-filters="sRGB">
      <feFlood
         flood-opacity="0"
         result="BackgroundImageFix"
         id="feFlood18" />
      <feColorMatrix
         in="SourceAlpha"
         type="matrix"
         values="0 0 0 0 0 0 0 0 0 0 0 0 0 0 0 0 0 0 127 0"
         result="hardAlpha"
         id="feColorMatrix20" />
      <feOffset
         id="feOffset22" />
      <feGaussianBlur
         stdDeviation="35.7477"
         id="feGaussianBlur24" />
      <feComposite
         in2="hardAlpha"
         operator="out"
         id="feComposite26" />
      <feColorMatrix
         type="matrix"
         values="0 0 0 0 0.980392 0 0 0 0 0.792157 0 0 0 0 0.435294 0 0 0 0.15 0"
         id="feColorMatrix28" />
      <feBlend
         mode="normal"
         in2="BackgroundImageFix"
         result="effect1_dropShadow_132_238"
         id="feBlend30" />
      <feBlend
         mode="normal"
         in="SourceGraphic"
         in2="effect1_dropShadow_132_238"
         result="shape"
         id="feBlend32" />
    </filter>
    <filter
       id="filter1_d_132_238"
       x="155.752"
       y="0.63278198"
       width="472.89099"
       height="218.57201"
       filterUnits="userSpaceOnUse"
       color-interpolation-filters="sRGB">
      <feFlood
         flood-opacity="0"
         result="BackgroundImageFix"
         id="feFlood35" />
      <feColorMatrix
         in="SourceAlpha"
         type="matrix"
         values="0 0 0 0 0 0 0 0 0 0 0 0 0 0 0 0 0 0 127 0"
         result="hardAlpha"
         id="feColorMatrix37" />
      <feOffset
         id="feOffset39" />
      <feGaussianBlur
         stdDeviation="35.7477"
         id="feGaussianBlur41" />
      <feComposite
         in2="hardAlpha"
         operator="out"
         id="feComposite43" />
      <feColorMatrix
         type="matrix"
         values="0 0 0 0 0.980392 0 0 0 0 0.792157 0 0 0 0 0.435294 0 0 0 0.15 0"
         id="feColorMatrix45" />
      <feBlend
         mode="normal"
         in2="BackgroundImageFix"
         result="effect1_dropShadow_132_238"
         id="feBlend47" />
      <feBlend
         mode="normal"
         in="SourceGraphic"
         in2="effect1_dropShadow_132_238"
         result="shape"
         id="feBlend49" />
    </filter>
  </defs>
</svg>
